
<svg width="512" height="512" xmlns="http://www.w3.org/2000/svg">

 <g>
  <title>background</title>
  <rect fill="none" id="canvas_background" height="402" width="582" y="-1" x="-1"/>
 </g>
 <g>
  <title>Layer 1</title>
  <path fill="#222222" fillRule="nonzero" strokeWidth="12.257193" id="rect3000-1-5" d="m257.37513,127.00064c-4.8787,-0.007 -9.7473,0.0149 -14.625,0.0625c-26.2155,0.45412 -52.5925,1.09099 -78.5625,4.71875c-8.9623,4.55564 -13.5585,14.55677 -19.1562,22.46875c-10.1207,16.93494 -14.8301,36.39488 -20.4063,55.09375c-2.3394,2.54334 -3.9391,6.08182 -6.5625,8.21875c-2.3465,-0.56737 0.1699,-5.85994 -0.4062,-8.375c1.3737,-7.76868 -7.9248,-12.49868 -14.4063,-9.53125c-6.5599,2.53411 -16.5007,3.20512 -19.0312,10.9375c-0.066,8.76844 8.9788,15.33269 17.4375,14.25c3.8933,0.63545 5.5428,5.48688 7.9375,8.15625c0.2034,14.16215 -3.0151,28.35865 -2.2188,42.625c0.409,9.02682 -0.4947,18.52162 2.2813,27.1875c0.7818,0.82403 1.5324,1.06335 2.25,0.96875c-0.1567,0.51679 -0.2813,1.04709 -0.2813,1.59375l0,73.5c0,3.2064 2.9186,6.125 6.125,6.125l24.5,0c3.2065,-0.002 6.125,-2.9186 6.125,-6.125l0,-25.34375l215.0937,0l0,25.34375c0,3.20644 2.9186,6.1228 6.125,6.125l24.5,0c3.2066,-0.002 6.123,-2.91856 6.125,-6.125l0,-73.5c-0.0001,-0.58054 -0.1051,-1.14156 -0.2812,-1.6875c4.4068,0.0238 3.2939,-7.08095 4,-10.25c0.7469,-19.03565 0.6945,-38.40513 -2.2812,-57.15625c0.5024,-4.53942 4.4824,-8.73212 7.8437,-11.3125c8.0946,0.39888 17.0373,-4.24526 18.2813,-12.90625c-1.1452,-8.04363 -11.2319,-9.68558 -17.5626,-12c-5.7289,-2.37005 -15.4544,-1.26068 -16.0312,6.375c-0.6075,3.47759 1.6377,8.89166 0.094,11.1875c-3.558,-1.48791 -4.9753,-6.11035 -7.375,-9c-4.8849,-17.08337 -9.3181,-34.78291 -17.6876,-50.65625c-5.7714,-9.23161 -11.5938,-19.37488 -20.5,-25.9375c-15.4385,-3.25252 -31.6838,-2.48997 -47.4374,-4c-14.6189,-0.70691 -29.2702,-1.0101 -43.9063,-1.03125l-0.0002,0zm-1.2187,7.90625c28.8676,-0.00051 57.7392,0.0923 60,0.3125c1.8946,0.18441 4.3437,0.71379 5.5,1.15625c2.2906,0.87653 3.1666,1.80321 8.3124,8.65625c5.1159,6.81315 6.7091,8.5421 12.6563,13.84375c10.1737,9.06927 11.2341,10.55443 14.1563,19.875c0.926,2.95374 3.6751,11.61772 6.125,19.28125c2.4499,7.66352 4.4028,14.36652 4.3437,14.875l-0.094,0.9375l-24.7185,0.21875c-47.6706,0.42768 -102.3411,0.5264 -134.4375,0.28125c-17.8209,-0.13612 -39.2943,-0.25299 -47.7187,-0.28125c-13.504,-0.0453 -15.3427,-0.13347 -15.5313,-0.625c-0.1176,-0.30664 1.5967,-6.22623 3.8125,-13.15625c2.2159,-6.93001 4.9814,-15.6397 6.1563,-19.375c3.4607,-11.00226 4.644,-12.89411 11.9375,-19.40625c7.5156,-6.7105 10.625,-9.97502 14.9687,-15.6875c2.3958,-3.15065 4.962,-6.42038 5.7188,-7.25c1.7634,-1.93297 4.3194,-2.87524 8.8125,-3.3125c2.262,-0.22014 31.1323,-0.34325 60,-0.34375zm-120.9375,91.84375c15.3442,3.21497 29.3384,12.87959 43.375,19.8125c7.9607,3.00474 18.5932,11.18355 12.3437,20.5625c-10.5417,7.44754 -25.3218,2.49785 -37.375,2.1875c-9.584,-2.74285 -24.6567,-1.81581 -29.2812,-12.375c-0.6005,-9.97191 -2.8984,-28.59836 10.9375,-30.1875zm239.6875,0.5625c15.5899,-0.56149 18.5727,25.41586 8.75,33.6875c-15.5107,10.00181 -35.7627,9.01709 -53.625,9.15625c-8.5831,1.3502 -16.9442,-9.12284 -8.2188,-15.25c15.5063,-12.33591 33.9426,-22.30471 53.0938,-27.59375z"/>
 </g>
</svg>